<svg xmlns="http://www.w3.org/2000/svg" xmlns:xlink="http://www.w3.org/1999/xlink" width="237.25" height="68.25" viewBox="0 0 237.25 68.25"><defs><path id="a" d="M-56-49h449v174H-56z"/></defs><clipPath id="b"><use xlink:href="#a" overflow="visible"/></clipPath><path clip-path="url(#b)" fill="#666" d="M89.192 62.968c-1.176 0-2.385-.515-2.385-1.665l-.014-.007c-.726 1.123-2.153 1.672-3.62 1.672-2.102 0-3.846-1.123-3.846-3.258 0-2.074 1.64-3.515 4.718-3.515.932 0 1.897.133 2.61.278v-.647c0-1.66-1.143-2.28-2.676-2.28-1.12 0-2.28.33-3.18.813l-.66-1.47c1.13-.83 2.73-1.13 4.14-1.13 2.85 0 4.44 1.24 4.44 3.72v4.4c0 .81.15 1.25.71 1.53l-.25 1.54zm-4.975-5.154c-1.99 0-2.835.667-2.835 1.77 0 1.197.998 1.666 2.016 1.666 1.473 0 3.257-.984 3.257-2.412v-.766c-.608-.126-1.553-.258-2.438-.258m25.506 3.522c-1.4 1.077-3.376 1.632-5.16 1.632-4.4 0-7.65-3.376-7.65-7.81 0-4.513 3.362-7.94 7.755-7.94 1.798 0 3.634.574 5.035 1.657l-.99 1.546c-1.078-.81-2.61-1.27-3.965-1.27-3.19 0-5.636 2.55-5.636 5.98 0 3.4 2.392 5.9 5.57 5.9 1.4 0 3.02-.49 4.03-1.26l1.01 1.58zm9.493 1.414v-6.164c0-1.705-.812-2.928-2.537-2.928-1.7 0-3.02 1.177-3.02 2.88v6.212h-2.12V47.145l2.11-.417v6.64c.79-1.07 2.14-1.604 3.56-1.604 2.61 0 4.1 1.803 4.1 4.453v6.534h-2.11zm9.756.218c-3.02 0-5.49-1.962-5.49-5.53 0-3.475 2.35-5.675 5.337-5.675 3.09 0 5.05 2.352 5.05 5.378 0 .36-.03.7-.06.89h-8.2c.19 1.96 1.53 3.13 3.45 3.13 1.11 0 2.28-.39 3.13-1.05l.97 1.34c-1.04.96-2.58 1.53-4.2 1.53m2.81-6.49c-.12-1.55-1.13-2.9-2.95-2.9-1.7 0-2.94 1.17-3.19 2.9h6.13zm14.34 5.8c0 3.35-2.27 5.22-5.48 5.22-1.74 0-3.22-.55-4.43-1.57l1.01-1.39c.89.68 2.07 1.09 3.3 1.09 1.99 0 3.48-1.08 3.48-3.71v-.95c-.77 1.12-2.23 1.67-3.65 1.67-2.76 0-4.92-2.08-4.92-5.39 0-3.51 2.42-5.46 5.04-5.46 1.44 0 2.87.6 3.65 1.79l.19-1.57h1.79V62.3zm-2.09-5.1c0-2.03-1.21-3.54-3.21-3.54-1.99 0-3.27 1.5-3.27 3.59 0 2.11 1.29 3.55 3.25 3.55 2.06 0 3.22-1.6 3.22-3.59m15.04 5.1c0 3.35-2.27 5.22-5.48 5.22-1.74 0-3.22-.55-4.43-1.57l1.01-1.39c.89.68 2.07 1.09 3.3 1.09 1.99 0 3.48-1.08 3.48-3.71v-.95h-.01c-.77 1.12-2.23 1.67-3.64 1.67-2.76 0-4.92-2.09-4.92-5.4 0-3.51 2.42-5.46 5.04-5.46 1.45 0 2.87.6 3.65 1.79l.19-1.57h1.79V62.3zm-2.09-5.1c0-2.03-1.21-3.54-3.21-3.54-1.99 0-3.27 1.5-3.27 3.59 0 2.11 1.29 3.55 3.25 3.55 2.06 0 3.22-1.6 3.22-3.59m16.82 4c1.02 0 2.18-.32 2.18-1.37 0-2.34-5.75-.87-5.75-4.82 0-2.18 1.75-3.22 3.91-3.22 1.31 0 2.57.38 3.6 1.14l-.85 1.41c-.73-.49-1.76-.8-2.64-.8-.95 0-1.97.35-1.97 1.33 0 2.31 5.79.94 5.79 4.86 0 2.25-1.89 3.26-4.18 3.26-1.63 0-2.75-.51-4.07-1.48l1-1.36c.91.64 1.83 1.06 2.99 1.06M185.03 63c-3.02 0-5.49-1.965-5.49-5.53 0-3.48 2.356-5.68 5.34-5.68 3.09 0 5.057 2.35 5.057 5.38 0 .354-.022.7-.05.89h-8.2c.198 1.96 1.54 3.13 3.45 3.13 1.12 0 2.28-.396 3.13-1.05l.98 1.334c-1.04.96-2.58 1.528-4.2 1.528m2.815-6.49c-.12-1.55-1.13-2.9-2.95-2.9-1.7 0-2.936 1.17-3.188 2.9h6.13zm4.26-4.49h1.75l.207 1.68.01.01c.62-1.316 1.51-1.904 2.97-1.904.49 0 .98.067 1.43.187l-.33 1.95c-.41-.13-.8-.19-1.22-.19-2.24 0-2.74 1.92-2.74 4.15v4.89h-2.1v-10.8zm12.66 8.49l3.13-8.49h2.16l-4.28 10.76h-2.14L199.522 52h2.29m9.643-3.53c0-.77.62-1.39 1.38-1.39s1.39.62 1.39 1.39c0 .765-.62 1.386-1.39 1.386s-1.386-.62-1.386-1.39m.33 3.528h2.11v10.77h-2.11V51.98zm13.58 9.768c-1.09.792-2.4 1.22-3.75 1.22-2.81 0-5.56-1.863-5.56-5.535 0-3.517 2.53-5.67 5.61-5.67 1.25 0 2.58.356 3.58 1.083l-.91 1.515c-.72-.456-1.71-.74-2.6-.74-2.04 0-3.56 1.5-3.56 3.746 0 2.23 1.49 3.74 3.52 3.74.89 0 1.91-.29 2.63-.78l1.04 1.42zm6.24 1.22c-3.02 0-5.49-1.96-5.49-5.53 0-3.474 2.35-5.674 5.33-5.674 3.09 0 5.05 2.35 5.05 5.38 0 .354-.03.7-.05.89h-8.2c.19 1.96 1.53 3.13 3.45 3.13 1.11 0 2.28-.396 3.13-1.05l.97 1.334c-1.04.96-2.58 1.528-4.2 1.528m2.81-6.493c-.12-1.555-1.12-2.9-2.95-2.9-1.7 0-2.94 1.17-3.19 2.9h6.13z"/><path clip-path="url(#b)" fill-rule="evenodd" clip-rule="evenodd" fill="#F15B2B" d="M83.645 20.552v11.34h16.18v3.382H79.5V3.517h20.094v3.38h-15.95V17.17H97.68v3.383m12.58 12.237c1.502 0 2.857-.414 4.064-1.242 1.208-.825 1.993-1.774 2.358-2.842v-3.97h-4.653c-1.67 0-3.01.452-4.02 1.353-1.01.9-1.51 1.96-1.51 3.18 0 1.08.31 1.94.95 2.57.63.63 1.56.95 2.8.95m6.88 3.28c-.14-.74-.25-1.39-.33-1.96-.08-.57-.13-1.14-.14-1.71-.77 1.17-1.78 2.16-3.02 2.95s-2.58 1.19-4.01 1.19c-2.38 0-4.18-.66-5.42-1.96-1.25-1.31-1.87-3.1-1.87-5.4 0-2.34.88-4.17 2.64-5.49 1.76-1.32 4.15-1.98 7.17-1.98h4.5V19.3c0-1.432-.41-2.567-1.22-3.404-.82-.837-1.97-1.256-3.46-1.256-1.33 0-2.42.365-3.25 1.098-.84.732-1.25 1.61-1.25 2.636h-3.96l-.04-.14c-.09-1.78.69-3.408 2.34-4.887 1.65-1.477 3.78-2.217 6.39-2.217 2.58 0 4.66.705 6.23 2.115 1.57 1.41 2.35 3.442 2.35 6.096v11.79c0 .88.04 1.72.12 2.54.08.82.24 1.62.46 2.4h-4.27zm20.52-6.52c0-.98-.34-1.79-1.03-2.42-.68-.64-1.97-1.19-3.88-1.65-2.72-.65-4.76-1.53-6.13-2.63-1.37-1.11-2.06-2.62-2.06-4.53 0-1.99.77-3.68 2.31-5.08 1.54-1.41 3.56-2.1 6.04-2.1 2.6 0 4.67.73 6.21 2.19s2.27 3.24 2.2 5.34l-.04.13h-3.88c0-1.07-.41-2.03-1.23-2.89-.82-.86-1.91-1.28-3.26-1.28-1.45 0-2.52.34-3.23 1.04-.7.69-1.06 1.53-1.06 2.51 0 .96.31 1.72.93 2.28.62.56 1.88 1.06 3.79 1.49 2.82.66 4.92 1.56 6.3 2.7 1.38 1.14 2.07 2.66 2.07 4.58 0 2.17-.8 3.93-2.41 5.27s-3.7 2.01-6.29 2.01c-2.85 0-5.1-.79-6.74-2.38-1.64-1.58-2.42-3.43-2.34-5.54l.04-.14h3.89c.07 1.58.6 2.73 1.61 3.45 1 .73 2.18 1.09 3.53 1.09 1.45 0 2.58-.32 3.4-.96.83-.64 1.23-1.49 1.23-2.53m15.28-3.61l.77 2.95h.13l5.89-17.76h4.854L154.5 38.25c-.608 1.58-1.475 2.956-2.606 4.13-1.13 1.174-2.66 1.76-4.58 1.76-.354 0-.803-.04-1.35-.12-.55-.08-.97-.154-1.265-.23l.45-3.37c-.09-.013.17 0 .78.045.61.042 1 .06 1.16.06.93 0 1.69-.406 2.28-1.22.59-.81 1.08-1.71 1.48-2.696l1.04-2.46-8.9-23.03h4.87l5.05 14.8"/><path clip-path="url(#b)" fill-rule="evenodd" clip-rule="evenodd" fill="#6D6E71" d="M169.806 19.985V33.05h8.565c2.4 0 4.28-.577 5.65-1.728 1.37-1.152 2.05-2.764 2.05-4.837 0-1.897-.62-3.457-1.86-4.673-1.24-1.218-3.04-1.827-5.4-1.827h-8.99zm0-2.223h7.473c2.35 0 4.16-.507 5.45-1.517 1.28-1.01 1.93-2.498 1.93-4.46 0-2.007-.69-3.516-2.05-4.525-1.37-1.012-3.37-1.516-5.98-1.516h-6.83v12.018zm-2.657 17.513V3.518h9.48c3.37 0 6 .696 7.88 2.085 1.88 1.39 2.82 3.48 2.82 6.274 0 1.63-.48 3.048-1.42 4.256-.95 1.207-2.23 2.043-3.85 2.508 1.98.35 3.58 1.26 4.81 2.73 1.23 1.47 1.85 3.17 1.85 5.08 0 2.84-.94 5.02-2.82 6.54-1.88 1.53-4.4 2.29-7.55 2.29h-11.22zm24.13-23.79h2.54v23.79h-2.54v-23.79zm0-10.51h2.54V4.67h-2.54V.977zm24.03 23.13c0-3.118-.59-5.654-1.75-7.604-1.17-1.95-2.89-2.92-5.18-2.92-1.82 0-3.29.47-4.4 1.4-1.12.94-1.94 2.13-2.48 3.6v11.05c.58 1.42 1.45 2.54 2.61 3.38 1.15.84 2.59 1.26 4.31 1.26 2.28 0 4-.87 5.15-2.62 1.15-1.75 1.72-4.09 1.72-7.05v-.47zm2.64.47c0 3.646-.8 6.55-2.4 8.72-1.6 2.165-3.81 3.25-6.62 3.25-1.73 0-3.22-.356-4.48-1.07-1.25-.71-2.27-1.734-3.04-3.07l-.29 3.667h-2.24V.978h2.61v14.577c.78-1.363 1.79-2.42 3.01-3.16 1.22-.742 2.67-1.114 4.36-1.114 2.84 0 5.05 1.17 6.65 3.5 1.6 2.34 2.4 5.44 2.4 9.33v.47z"/><path clip-path="url(#b)" fill-rule="evenodd" clip-rule="evenodd" fill="#F15B2B" d="M22.134 60.924L1.292 4.564S5.837 1.527 7.605.947C9.37.37 40.34 3.987 40.34 3.987l18.104 51.11S39.26 55 30.65 55c-1.255 0-6.747 3.896-6.896 4.478-.152.576 27.593 1.88 28.038 1.88.434 0 .88-.58 1.316-.727.442-.14 1.18 2.61.594 2.61-.594 0-31.568-2.31-31.568-2.31"/><path fill="#666" d="M164.11 53.607c0 .93-.728 1.66-1.678 1.66-.94 0-1.69-.73-1.69-1.66 0-.91.75-1.64 1.69-1.64.95 0 1.68.73 1.68 1.64zm-2.947 0c0 .73.54 1.31 1.28 1.31.72 0 1.25-.58 1.25-1.3 0-.73-.53-1.32-1.26-1.32s-1.27.59-1.27 1.31zm1.01.86h-.38v-1.64c.15-.03.36-.05.63-.05.31 0 .45.05.57.12.09.07.16.2.16.36 0 .18-.14.32-.34.38v.02c.16.06.25.18.3.4.05.25.08.35.12.41h-.41c-.05-.06-.08-.21-.13-.4-.03-.18-.13-.26-.34-.26h-.18v.66zm.01-.93h.18c.21 0 .38-.07.38-.24 0-.15-.11-.25-.35-.25-.1 0-.17.01-.21.02v.47zm63.827-38.85c0 1.304-1.023 2.326-2.355 2.326-1.316 0-2.367-1.022-2.367-2.325 0-1.275 1.05-2.297 2.367-2.297 1.33 0 2.354 1.03 2.354 2.3zm-4.133 0c0 1.023.756 1.836 1.793 1.836 1.008 0 1.75-.812 1.75-1.82 0-1.023-.742-1.85-1.765-1.85s-1.778.826-1.778 1.835zm1.414 1.205h-.53v-2.297c.21-.042.51-.07.89-.07.44 0 .63.07.8.168.13.098.23.28.23.504 0 .252-.19.448-.47.532v.02c.23.08.35.25.42.56.07.35.11.49.17.57h-.57c-.07-.09-.11-.3-.18-.56-.04-.26-.18-.37-.47-.37h-.25v.92zm.02-1.303h.25c.3 0 .53-.1.53-.34 0-.21-.15-.35-.49-.35-.14 0-.23.01-.29.03v.66z"/></svg>