<?xml version="1.0" encoding="UTF-8" standalone="no"?>
<svg width="181px" height="30px" viewBox="0 0 181 30" version="1.1" xmlns="http://www.w3.org/2000/svg" xmlns:xlink="http://www.w3.org/1999/xlink">
    <!-- Generator: sketchtool 41 (35326) - http://www.bohemiancoding.com/sketch -->
    <title>2515BBA1-4243-4A4E-AF4B-9DB6832520DF</title>
    <desc>Created with sketchtool.</desc>
    <defs></defs>
    <g id="WebMDRx" stroke="none" stroke-width="1" fill="none" fill-rule="evenodd">
        <g id="Artboard" transform="translate(-257.000000, -31.000000)">
            <g id="WebMDRxBetaTM" transform="translate(257.000000, 30.000000)">
                <g id="Logo-fom-App" transform="translate(0.000000, 1.000000)">
                    <g id="Group-15" transform="translate(0.000000, 0.063345)">
                        <path d="M135.818054,14.3160142 L138.541898,14.3160142 C139.42873,14.3160142 140.252218,14.1893238 140.88567,13.9359431 C141.519122,13.6825623 142.089228,13.3658363 142.4693,12.9857651 C142.912716,12.5423488 143.166097,12.0989324 143.356132,11.5288256 C143.546168,10.9587189 143.609513,10.3886121 143.609513,9.75516014 C143.609513,8.48825623 143.166097,7.4747331 142.342609,6.77793594 C141.519122,6.08113879 140.252218,5.70106762 138.478552,5.70106762 L135.754709,5.70106762 L135.754709,14.3160142 L135.818054,14.3160142 Z M135.818054,18.9402135 L135.818054,29.7088968 L129.103463,29.7088968 L129.103463,0.633451957 L138.541898,0.633451957 C140.632289,0.633451957 142.405954,0.823487544 143.926239,1.26690391 C145.383179,1.71032028 146.650083,2.28042705 147.536915,3.10391459 C148.487093,3.86405694 149.18389,4.81423488 149.563962,5.82775801 C149.944033,6.84128114 150.197414,8.04483986 150.197414,9.24839858 C150.197414,10.1985765 150.070723,11.0854093 149.817342,11.9088968 C149.563962,12.7323843 149.18389,13.4925267 148.677129,14.252669 C148.170367,14.9494662 147.536915,15.5829181 146.840118,16.1530249 C146.143321,16.7231317 145.256488,17.166548 144.30631,17.5466192 C144.749727,17.8 145.193143,18.0533808 145.573214,18.3701068 C145.953285,18.6868327 146.333357,19.1302491 146.586737,19.5736655 L152.794567,29.7088968 L146.713428,29.7088968 C145.573214,29.7088968 144.749727,29.2654804 144.30631,28.4419929 L139.492075,20.0170819 C139.30204,19.6370107 139.048659,19.3836299 138.731933,19.1935943 C138.415207,19.0035587 138.035136,18.9402135 137.528374,18.9402135 L135.818054,18.9402135 Z" id="Fill-2" fill="#1682C5"></path>
                        <path d="M158.68567,19.0035587 L152.034424,8.99501779 L157.988873,8.99501779 C158.432289,8.99501779 158.749015,9.05836299 158.939051,9.18505338 C159.129086,9.31174377 159.319122,9.50177936 159.509157,9.75516014 L163.183179,15.8996441 C163.246524,15.6462633 163.373214,15.4562278 163.499905,15.202847 C163.626595,14.9494662 163.753285,14.7594306 163.879976,14.5060498 L166.540474,9.88185053 C166.73051,9.56512456 166.920545,9.37508897 167.110581,9.24839858 C167.300616,9.12170819 167.553997,9.05836299 167.870723,9.05836299 L173.508446,9.05836299 L166.8572,18.7501779 L173.825172,29.7088968 L167.870723,29.7088968 C167.427307,29.7088968 167.110581,29.5822064 166.793855,29.3921708 C166.477129,29.2021352 166.287093,28.9487544 166.160403,28.6320285 L162.486381,22.2975089 C162.423036,22.5508897 162.359691,22.7409253 162.233001,22.9309609 C162.169656,23.1209964 162.042965,23.311032 161.916275,23.5010676 L158.875705,28.6320285 C158.68567,28.8854093 158.495634,29.13879 158.242253,29.3921708 C157.988873,29.6455516 157.672147,29.7088968 157.22873,29.7088968 L151.717698,29.7088968 L158.68567,19.0035587 Z" id="Fill-4" fill="#1682C5"></path>
                        <path d="M34.0223246,3.48398577 C34.2123601,2.9772242 34.6557765,2.02704626 35.2258833,1.71032028 C35.5426093,1.5202847 36.112716,1.58362989 36.2394064,1.14021352 C36.3660968,0.696797153 35.9860256,0.570106762 34.4657409,0.570106762 L29.968232,0.570106762 C28.5746377,0.570106762 27.9411858,0.570106762 28.0678762,1.20355872 C28.1312214,1.5202847 28.5746377,1.58362989 28.8280185,1.64697509 C30.0949224,2.02704626 30.9817552,2.66049822 30.601684,4.05409253 C30.2216128,5.44768683 24.5205452,22.1708185 24.5205452,22.1708185 C24.3305096,22.8042705 23.7604028,22.9309609 23.5703673,22.0441281 L20.5931431,7.91814947 C20.3397623,6.77793594 20.0863815,5.25765125 19.9596911,4.62419929 C19.9596911,4.62419929 19.7696555,3.67402135 18.6927872,3.67402135 C17.8692996,3.67402135 17.5525737,4.24412811 17.4258833,4.4341637 C17.1091573,5.32099644 16.3490149,6.77793594 15.8422534,7.85480427 L8.36752028,22.2975089 C8.05079431,22.8042705 7.67072313,22.6775801 7.60737794,22.0441281 L6.6572,7.4113879 C6.6572,6.27117438 6.53050961,3.99074733 6.53050961,3.61067616 C6.53050961,2.66049822 7.16396157,1.90035587 8.05079431,1.64697509 C8.24082989,1.58362989 8.74759146,1.4569395 8.81093665,1.14021352 C8.93762705,0.570106762 8.30417509,0.570106762 6.91058078,0.570106762 L6.7205452,0.570106762 L1.96965552,0.570106762 L1.27285836,0.570106762 C0.386025623,0.633451957 -0.0573907473,0.696797153 0.0059544484,1.20355872 C0.0692996441,1.5202847 0.512716014,1.58362989 0.766096797,1.64697509 C1.39954875,1.83701068 1.77961993,2.21708185 2.03300071,2.78718861 C2.1596911,3.10391459 2.2230363,3.42064057 2.2230363,3.42064057 L2.2230363,3.54733096 L2.2230363,3.61067616 L2.2230363,3.73736655 C2.53976228,4.87758007 2.79314306,6.58790036 2.85648826,7.66476868 L4.06004698,25.5281139 C4.12339217,26.7316726 4.12339217,28.4419929 4.44011815,29.13879 C4.82018932,29.8989324 6.46716441,29.8355872 7.10061637,28.8220641 C7.29065196,28.5686833 16.6023957,10.8953737 16.6023957,10.8953737 C17.1725025,9.81850534 17.8059544,9.94519573 17.99599,11.0854093 L20.909869,25.5914591 C21.1632498,26.7316726 21.4166306,28.0619217 21.6700114,28.7587189 C22.0500826,29.8355872 24.0771288,29.6455516 24.5838904,28.6320285 C25.0273068,27.7451957 25.5340683,26.541637 25.9141395,25.4014235 C25.9774847,25.5281139 33.6422534,4.4341637 34.0223246,3.48398577 M58.6002605,10.3886121 C54.9895843,10.3886121 51.632289,13.7459075 49.4785523,16.2797153 C49.4152071,16.2163701 49.6685879,15.2661922 49.9853139,14.1259786 L53.4059544,2.66049822 C53.6593352,1.5202847 53.0258833,0.570106762 51.8223246,0.570106762 L48.9717907,0.570106762 C47.5781964,0.570106762 46.9447445,0.570106762 47.0714349,1.20355872 C47.1347801,1.5202847 47.5781964,1.58362989 47.8315772,1.64697509 C49.1618263,2.02704626 49.6685879,3.54733096 49.2885167,5.19430605 C49.2885167,5.06761566 45.8678762,18.7501779 45.8678762,18.7501779 C45.6144954,19.8903915 44.6009722,21.5373665 43.7141395,22.3608541 C43.7141395,22.3608541 39.5967018,27.4284698 35.4792641,27.4284698 C33.5789082,27.4284698 32.1853139,26.3516014 32.1853139,24.3245552 C32.1853139,23.2476868 32.2486591,22.3608541 32.5020399,21.2839858 C36.746168,20.8405694 44.4742819,18.8135231 44.4742819,13.2391459 C44.4742819,11.0220641 42.3205452,10.3252669 40.4835345,10.3252669 C34.5924313,10.3252669 28.8280185,17.5466192 28.8280185,24.0711744 C28.8280185,26.7950178 30.0949224,29.5822064 33.832289,29.5822064 C40.8002605,29.5822064 44.6643174,22.6775801 44.854353,22.4875445 C44.854353,22.4875445 44.537627,24.1978648 44.537627,25.2113879 C44.537627,28.1886121 46.6913637,29.5822064 49.3518619,29.5822064 C51.315563,29.5822064 53.3426093,28.8854093 55.3063103,27.7451957 C56.826595,26.858363 58.2201893,25.6548043 59.3604028,24.26121 C61.6408299,21.6640569 63.1611146,18.4967972 63.1611146,15.519573 C63.1611146,12.4790036 61.8308655,10.3886121 58.6002605,10.3886121 M39.5967018,11.655516 C40.6735701,11.655516 41.2436769,12.3523132 41.2436769,13.4291815 C41.2436769,17.8633452 36.3660968,19.8270463 32.6287302,20.080427 C33.2621822,17.3565836 36.4927872,11.655516 39.5967018,11.655516 M58.0301537,21.347331 C57.143321,23.1843416 55.9397623,24.8946619 54.6095132,26.224911 C53.2159189,27.6185053 51.5689438,28.5686833 49.9853139,28.5686833 C48.1483032,28.5686833 47.5148512,26.7950178 47.5148512,25.0846975 C47.5148512,20.5238434 52.4557765,12.0355872 57.460047,12.0355872 C59.2970577,12.0355872 59.8671644,13.3658363 59.8671644,14.886121 C59.9305096,16.6597865 59.1703673,19.0669039 58.0301537,21.347331" id="Fill-6" fill="#1682C5"></path>
                        <path d="M120.867701,3.42064057 C117.19368,0.506761566 110.225708,0.633451957 110.225708,0.633451957 L105.094747,0.633451957 L101.357381,0.633451957 L101.294036,0.633451957 L98.190121,0.633451957 C96.7965267,0.633451957 96.2897651,0.760142349 96.4164555,1.33024911 C96.4798007,1.64697509 96.9232171,1.77366548 97.1765979,1.83701068 C98.0634306,2.09039146 98.6968826,2.53380783 98.6968826,3.42064057 C98.7602278,4.4341637 98.8869181,7.53807829 98.8869181,8.67829181 L98.8869181,17.6099644 L98.8869181,21.9807829 L98.8869181,27.5551601 C98.8869181,28.7587189 99.8370961,29.772242 101.040655,29.772242 L103.827843,29.772242 L108.198662,29.772242 C108.198662,29.772242 113.329623,29.772242 117.066989,28.0619217 C122.641367,25.5281139 125.871972,20.5871886 125.871972,14.569395 C125.808626,9.94519573 123.971616,5.82775801 120.867701,3.42064057 M108.768769,27.1117438 L108.515388,27.1117438 C106.868413,27.1117438 105.094747,27.1117438 104.207915,26.224911 C103.764498,25.7814947 103.511117,25.0846975 103.511117,24.1345196 L103.511117,10.7686833 C103.511117,8.04483986 103.447772,6.71459075 103.511117,3.61067616 C105.664854,3.35729537 106.741722,3.29395018 108.452043,3.29395018 C111.619302,3.29395018 114.913253,3.73736655 117.637096,6.77793594 C119.537452,8.9316726 120.424285,11.5921708 120.424285,14.9494662 C120.550975,22.2975089 115.926776,27.1117438 108.768769,27.1117438 M96.4164555,28.5053381 C95.5296228,28.1886121 94.8961708,27.175089 94.8961708,26.6683274 C94.8961708,26.1615658 94.3260641,2.85053381 94.3260641,2.85053381 C94.3260641,1.64697509 94.3260641,0.760142349 94.0093381,0.633451957 C93.6292669,0.570106762 91.9822918,0.570106762 91.5388754,0.570106762 C90.4620071,0.570106762 89.7018648,0.570106762 89.5118292,0.760142349 C89.3217936,1.01352313 88.9417224,1.83701068 88.498306,2.9772242 L86.4079146,7.72811388 C85.8378078,8.80498221 84.9509751,10.6419929 84.3808683,11.7188612 L81.1502633,17.9266904 C80.5801566,19.0035587 79.6933238,19.0035587 79.1232171,17.9266904 L75.7659217,11.7188612 C75.1958149,10.6419929 74.245637,8.9316726 73.6755302,7.85480427 L71.331758,2.85053381 C70.8249964,1.83701068 70.6349609,0.950177936 70.3815801,0.760142349 C70.1915445,0.570106762 69.3047117,0.570106762 68.1644982,0.570106762 L65.3139644,0.570106762 C63.9203701,0.570106762 63.2869181,0.570106762 63.3502633,1.20355872 C63.4136085,1.5202847 63.9203701,1.58362989 64.1104057,1.64697509 C64.9972384,1.90035587 65.3139644,2.9772242 65.3139644,3.48398577 C65.3139644,3.99074733 65.3139644,25.2113879 65.187274,26.1615658 C65.187274,26.2882562 65.1239288,26.4782918 65.1239288,26.6683274 L65.0605836,26.7316726 C64.870548,27.6185053 64.3637865,28.3153025 63.5402989,28.5686833 C63.3502633,28.6320285 62.8435018,28.6953737 62.7801566,29.0754448 C62.7168114,29.6455516 63.3502633,29.7088968 64.7438577,29.7088968 L65.6940356,29.7088968 L65.9474164,29.7088968 L67.0242847,29.7088968 L69.3680569,29.7088968 C70.7616512,29.7088968 71.3951032,29.7088968 71.331758,29.0754448 C71.2684128,28.7587189 70.8249964,28.6320285 70.5716157,28.5686833 C69.6847829,28.3153025 69.3680569,27.7451957 69.051331,26.7316726 C68.9246406,26.0348754 68.7979502,25.1480427 68.7979502,25.1480427 C68.734605,23.944484 68.734605,21.9807829 68.734605,20.7772242 L68.734605,20.397153 C68.734605,19.1935943 68.7979502,17.2298932 68.7979502,16.0263345 L68.9246406,11.2754448 C68.9246406,10.0718861 69.4314021,9.94519573 70.0015089,11.0220641 L73.1054235,16.8498221 C73.6755302,17.9266904 76.6527544,23.5644128 77.2228612,24.6412811 C77.6662776,25.5281139 77.792968,25.9081851 79.1865623,25.9081851 C80.7701922,25.9081851 80.7701922,25.4647687 81.4036441,24.0711744 C81.9104057,23.0576512 88.5616512,9.81850534 88.5616512,9.81850534 C89.131758,8.74163701 89.5751744,8.8683274 89.6385196,10.0718861 C89.6385196,10.0718861 89.7018648,26.1615658 89.6385196,26.9217082 C89.6385196,27.0483986 89.5751744,27.1117438 89.5751744,27.175089 C89.3217936,27.8718861 88.8783772,28.3786477 88.1182349,28.6320285 C87.9281993,28.6953737 87.4214377,28.7587189 87.3580925,29.13879 C87.2947473,29.7088968 87.9281993,29.772242 89.3217936,29.772242 L92.2356726,29.772242 L93.5659217,29.772242 L94.2627189,29.772242 L94.3260641,29.772242 L95.2128968,29.772242 C96.6064911,29.772242 97.2399431,29.772242 97.1765979,29.13879 C97.1132527,28.6953737 96.6064911,28.6320285 96.4164555,28.5053381" id="Fill-8" fill="#231F1F"></path>
                    </g>
                </g>
                <path d="M175.296387,9 L175.296387,5.84326172 L174.117188,5.84326172 L174.117188,5.42089844 L176.954102,5.42089844 L176.954102,5.84326172 L175.77002,5.84326172 L175.77002,9 L175.296387,9 Z M177.425293,9 L177.425293,5.42089844 L178.138184,5.42089844 L178.985352,7.95507812 C179.063477,8.19108191 179.120443,8.3676752 179.15625,8.48486328 C179.19694,8.3546543 179.260416,8.16341272 179.34668,7.91113281 L180.203613,5.42089844 L180.84082,5.42089844 L180.84082,9 L180.384277,9 L180.384277,6.00439453 L179.344238,9 L178.916992,9 L177.881836,5.953125 L177.881836,9 L177.425293,9 Z" id="TM" fill="#000000"></path>
            </g>
        </g>
    </g>
</svg>