<?xml version="1.0" encoding="utf-8"?>
<!-- Generator: Adobe Illustrator 18.0.0, SVG Export Plug-In . SVG Version: 6.00 Build 0)  -->
<!DOCTYPE svg PUBLIC "-//W3C//DTD SVG 1.1//EN" "http://www.w3.org/Graphics/SVG/1.1/DTD/svg11.dtd">
<svg version="1.1" id="Layer_1" xmlns="http://www.w3.org/2000/svg" xmlns:xlink="http://www.w3.org/1999/xlink" x="0px" y="0px"
	 viewBox="0 350 612 94" enable-background="new 0 350 612 94" xml:space="preserve">
<g>
	<g>
		<path fill="#FFFFFF" d="M69.1,419.1c-3.9,3.9-3.9,10.4,0,14.4s10.4,3.9,14.4,0s3.9-10.4,0-14.4C79.6,415.2,73.1,415.2,69.1,419.1z
			"/>
		<path fill="#FFFFFF" d="M47.5,378.9L47.5,378.9c2.6,0,5.2-1,7.1-3c3.9-3.9,3.9-10.4,0-14.4s-10.4-3.9-14.4,0c-2,2-3,4.7-3,7.3
			c-0.2,4.9-2.1,9.7-5.8,13.3c-3.6,3.6-8.3,5.1-13.1,5.1l0,0h-0.1c-0.2,0-0.5,0-0.7,0c-0.1,0-0.1,0-0.2,0c-0.2,0-0.5,0.1-0.7,0.1
			c-0.1,0-0.1,0-0.2,0c-0.2,0.1-0.5,0.1-0.7,0.2c-0.1,0-0.2,0.1-0.2,0.1c-0.2,0.1-0.4,0.1-0.6,0.2c-0.1,0-0.2,0.1-0.3,0.1
			c-0.2,0.1-0.4,0.2-0.6,0.3c-0.1,0.1-0.2,0.1-0.3,0.2c-0.2,0.1-0.3,0.2-0.5,0.3c-0.1,0.1-0.3,0.2-0.4,0.3c-0.1,0.1-0.3,0.2-0.4,0.3
			c-0.2,0.2-0.5,0.4-0.7,0.6c-2,2-3,4.6-3,7.2c0,2.7,1,5.2,3,7.2c0.2,0.2,0.5,0.4,0.7,0.7c0.1,0.1,0.2,0.1,0.2,0.2
			c0.2,0.1,0.3,0.3,0.5,0.4c0.1,0.1,0.3,0.2,0.4,0.2c0.1,0.1,0.3,0.2,0.4,0.2c0.2,0.1,0.4,0.2,0.5,0.3c0.1,0,0.2,0.1,0.3,0.1
			c0.2,0.1,0.4,0.2,0.7,0.2c0.1,0,0.1,0,0.2,0.1c0.3,0.1,0.5,0.1,0.9,0.2h0.1c0.3,0.1,0.5,0.1,0.9,0.1c0,0,0,0,0.1,0
			c0.3,0,0.5,0,0.9,0.1c0,0,0,0,0.1,0l0,0c4.8,0,9.5,1.5,13.1,5.1s5.5,8.4,5.8,13.3c0,2.7,1,5.3,3,7.3c3.9,3.9,10.4,3.9,14.4,0
			s3.9-10.4,0-14.4c-2-2-4.6-3-7.1-3c-5-0.1-9.8-2-13.5-5.8c-3.6-3.6-5.1-8.2-5.2-12.9c0-4.7,1.6-9.4,5.2-12.9
			C37.7,380.9,42.5,379,47.5,378.9z"/>
		<path fill="#FFFFFF" d="M83.5,375.9c3.9-3.9,3.9-10.4,0-14.4s-10.4-3.9-14.4,0s-3.9,10.4,0,14.4S79.6,379.8,83.5,375.9z"/>
	</g>
	<g>
		<path fill="#FFFFFF" d="M121.4,360.5h16.5v59.5h30.5v15.2h-47V360.5z"/>
		<path fill="#FFFFFF" d="M224.8,435.3h-15.2v-6.9h-0.2c-0.5,1-1.3,1.9-2.1,3c-0.9,1-1.9,1.9-3.2,2.7c-1.3,0.7-2.7,1.4-4.4,1.9
			c-1.6,0.5-3.4,0.7-5.3,0.7c-4,0-7.2-0.6-9.8-1.8c-2.6-1.3-4.5-3-5.9-5.1s-2.3-4.8-2.8-7.7c-0.4-3-0.6-6.2-0.6-9.6V384h15.9v25.1
			c0,1.5,0.1,3,0.2,4.6c0.1,1.6,0.4,3.1,1,4.4c0.5,1.4,1.4,2.4,2.4,3.3c1.1,0.9,2.7,1.3,4.7,1.3c2,0,3.7-0.3,5-1.1
			c1.3-0.7,2.2-1.7,2.9-3c0.6-1.3,1.1-2.7,1.3-4.2c0.2-1.6,0.3-3.2,0.3-4.9V384h15.9L224.8,435.3L224.8,435.3z"/>
		<path fill="#FFFFFF" d="M266.6,400.6c-0.7-1.2-1.9-2-3.3-2.8c-1.4-0.7-2.9-1.1-4.6-1.1c-4,0-7.1,1.2-9.4,3.6
			c-2.2,2.3-3.3,5.5-3.3,9.4c0,3.8,1.1,7,3.3,9.4s5.3,3.6,9.4,3.6c1.8,0,3.3-0.4,4.6-1.2c1.3-0.7,2.3-1.7,3.3-2.8l10.4,11
			c-2.4,2.6-5.3,4.3-8.7,5.3c-3.3,1.1-6.5,1.5-9.6,1.5c-3.9,0-7.7-0.6-11.2-1.9c-3.5-1.3-6.5-3.1-9.1-5.4c-2.6-2.3-4.6-5.2-6.1-8.5
			c-1.5-3.3-2.2-7-2.2-11.1s0.7-7.8,2.2-11.1c1.5-3.3,3.5-6.2,6.1-8.5c2.6-2.3,5.6-4.2,9.1-5.4c3.5-1.3,7.2-1.9,11.2-1.9
			c3,0,6.2,0.5,9.6,1.5c3.3,1.1,6.3,2.8,8.7,5.3L266.6,400.6z"/>
		<path fill="#FFFFFF" d="M283.7,367.8c0-2.6,0.9-4.7,2.7-6.5c1.8-1.8,3.9-2.7,6.5-2.7s4.7,0.9,6.5,2.7c1.8,1.8,2.7,3.9,2.7,6.5
			s-0.9,4.7-2.7,6.5c-1.8,1.8-3.9,2.7-6.5,2.7s-4.7-0.9-6.5-2.7C284.7,372.6,283.7,370.3,283.7,367.8z M285,384h15.9v51.3H285V384z"
			/>
		<path fill="#FFFFFF" d="M361.9,435.3h-14.6v-6.7h-0.2c-0.6,1-1.5,1.8-2.4,2.8c-1.1,1-2.2,1.8-3.6,2.6c-1.4,0.7-2.9,1.4-4.6,1.9
			c-1.7,0.5-3.4,0.7-5.1,0.7c-3.8,0-7.2-0.6-10.3-1.9c-3.1-1.3-5.8-3.1-8-5.5c-2.2-2.3-3.9-5.1-5.1-8.4c-1.2-3.2-1.8-6.8-1.8-10.7
			c0-3.6,0.5-7,1.6-10.3c1.1-3.3,2.7-6.2,4.7-8.7c2-2.6,4.5-4.6,7.3-6.1c2.9-1.5,6.2-2.2,9.8-2.2c3.3,0,6.4,0.5,9.3,1.5
			c2.9,1.1,5.2,2.8,7,5.2h0.2v-34h15.9L361.9,435.3L361.9,435.3z M347.3,409.6c0-3.8-1.1-7-3.3-9.4c-2.2-2.3-5.3-3.6-9.4-3.6
			c-4,0-7.1,1.2-9.4,3.6c-2.2,2.3-3.3,5.5-3.3,9.4s1.1,7,3.3,9.4s5.3,3.6,9.4,3.6c4,0,7.1-1.2,9.4-3.6
			C346.2,416.7,347.3,413.5,347.3,409.6z"/>
		<path fill="#FFFFFF" d="M411.9,398.2c-1.7-2.1-3.6-3.6-5.6-4.6c-2-1-4.3-1.4-6.7-1.4c-2.8,0-5.2,0.4-7.2,1.4
			c-2.1,1-3.8,2.2-5.2,3.9s-2.4,3.6-3.1,5.9c-0.7,2.2-1.1,4.6-1.1,7.1s0.4,4.9,1.2,7.1c0.9,2.2,1.9,4.2,3.4,5.9
			c1.4,1.7,3.2,3,5.2,3.9s4.4,1.4,6.8,1.4c5.4,0,9.6-2,12.6-6.1l6.1,5.9c-2.3,2.8-5.2,4.8-8.4,6c-3.2,1.3-6.6,1.9-10.2,1.9
			c-3.8,0-7.2-0.6-10.4-1.9c-3.2-1.3-5.9-3.1-8.1-5.4c-2.2-2.3-3.9-5.1-5.2-8.2c-1.3-3.2-1.8-6.6-1.8-10.4c0-3.7,0.6-7.1,1.8-10.3
			c1.3-3.2,3-6,5.2-8.2c2.2-2.3,4.9-4.2,8.1-5.4c3.1-1.3,6.6-1.9,10.4-1.9c3.6,0,7.1,0.6,10.4,1.9s6.2,3.2,8.6,6L411.9,398.2z"/>
		<path fill="#FFFFFF" d="M427.6,355.4h8.2v37.3h0.2c0.5-1,1.4-1.9,2.3-2.9s2.1-1.8,3.5-2.6c1.4-0.7,2.9-1.4,4.6-1.9
			c1.7-0.5,3.5-0.7,5.4-0.7c3.2,0,6.1,0.5,8.4,1.5c2.3,1,4.3,2.3,5.9,4.2c1.6,1.8,2.7,3.9,3.4,6.4s1.1,5.2,1.1,8.2v30.5h-8.2v-29.7
			c0-4.2-1-7.5-2.8-9.8c-1.8-2.3-4.7-3.6-8.5-3.6c-2.7,0-5,0.4-6.9,1.4c-1.9,1-3.5,2.2-4.8,3.9c-1.3,1.7-2.1,3.7-2.8,6
			c-0.6,2.3-0.9,4.9-0.9,7.7v24.1h-8.2V355.4z"/>
		<path fill="#FFFFFF" d="M483.6,392.2c2.6-2.6,5.5-4.5,9.1-5.8s7-1.8,10.7-1.8c7.3,0,12.6,1.7,15.9,5.2c3.2,3.4,4.9,8.7,4.9,15.8
			v21.2c0,1.4,0.1,2.9,0.2,4.4c0.1,1.5,0.3,2.9,0.5,4.2h-7.9c-0.3-1.2-0.4-2.3-0.4-3.7c0-1.4-0.1-2.6-0.1-3.6h-0.2
			c-1.6,2.6-3.8,4.6-6.5,6.2c-2.7,1.6-6,2.4-9.8,2.4c-2.6,0-4.9-0.3-7.1-1c-2.2-0.6-4.2-1.6-5.9-2.8c-1.6-1.3-3-2.8-3.9-4.6
			c-1-1.8-1.5-3.9-1.5-6.3c0-4,1.1-7.2,3.2-9.6c2.1-2.3,4.7-4,7.9-5.2c3.1-1.2,6.5-1.8,10.1-2.1c3.6-0.3,6.9-0.4,10-0.4h3.2v-1.5
			c0-3.6-1.1-6.3-3.2-8.1c-2.1-1.8-5.1-2.8-9.1-2.8c-2.7,0-5.3,0.4-7.9,1.3c-2.6,0.9-4.8,2.2-6.8,4L483.6,392.2z M507.4,411.6
			c-5.3,0-9.5,0.7-12.6,2.2c-3.1,1.5-4.7,3.9-4.7,7.2c0,3.1,1.1,5.3,3.1,6.6c2,1.3,4.7,1.9,7.8,1.9c2.3,0,4.5-0.4,6.3-1.2
			c1.8-0.9,3.3-1.9,4.5-3.2c1.2-1.4,2.1-2.9,2.8-4.7c0.6-1.8,1-3.7,1.1-5.8v-3.2H507.4z"/>
		<path fill="#FFFFFF" d="M538.9,397.6c0-2.2-0.1-4.4-0.2-6.3c-0.1-2-0.2-3.7-0.2-5.4h7.8c0,1.4,0,2.7,0.1,4
			c0.1,1.4,0.1,2.7,0.1,4.2h0.2c0.5-1.2,1.4-2.3,2.3-3.5c1.1-1.2,2.2-2.1,3.6-3c1.4-0.9,3-1.6,4.8-2.1c1.8-0.5,3.6-0.7,5.8-0.7
			c0.5,0,1.2,0,1.7,0.1c0.5,0.1,1.2,0.2,1.7,0.4l-0.5,8.3c-1.4-0.4-2.9-0.6-4.5-0.6c-5.1,0-8.7,1.6-11.1,4.9
			c-2.2,3.3-3.4,7.8-3.4,13.4v24.1h-8.2V397.6z"/>
		<path fill="#FFFFFF" d="M603.2,392.8h-14.6v24.7c0,1.6,0,3.1,0.1,4.5c0.1,1.4,0.3,2.6,0.9,3.6c0.5,1.1,1.3,1.8,2.2,2.4
			c1,0.6,2.3,0.9,4.3,0.9c1.2,0,2.4-0.1,3.7-0.4s2.4-0.7,3.6-1.3l0.3,7.5c-1.4,0.6-3,1.1-4.7,1.4s-3.4,0.4-4.9,0.4
			c-3,0-5.3-0.4-7-1.2c-1.8-0.7-3.1-1.8-4.2-3.3c-1-1.4-1.6-3.2-1.9-5.2s-0.4-4.4-0.4-6.9v-27.1h-10.8v-6.9h10.8v-14.1h8.2v14.1
			h14.6v6.9H603.2z"/>
	</g>
</g>
</svg>
